<mxfile host="65bd71144e">
    <diagram id="w4GSwg9Ww19PK5l7qDKL" name="PÃ¡gina-1">
        <mxGraphModel dx="1424" dy="1064" grid="1" gridSize="10" guides="1" tooltips="1" connect="1" arrows="1" fold="1" page="1" pageScale="1" pageWidth="2336" pageHeight="1654" math="0" shadow="0">
            <root>
                <mxCell id="0"/>
                <mxCell id="1" parent="0"/>
                <mxCell id="2" value="" style="group" vertex="1" connectable="0" parent="1">
                    <mxGeometry x="120" y="80" width="120" height="53" as="geometry"/>
                </mxCell>
                <mxCell id="3" value="" style="rounded=1;whiteSpace=wrap;html=1;strokeColor=none;fillColor=#2ECC71;shadow=0;" vertex="1" parent="2">
                    <mxGeometry width="120" height="53" as="geometry"/>
                </mxCell>
                <mxCell id="4" value="Controller" style="text;html=1;strokeColor=none;fillColor=none;align=left;verticalAlign=middle;whiteSpace=wrap;rounded=0;" vertex="1" parent="2">
                    <mxGeometry x="9" y="16.023255813953487" width="79" height="20.953488372093023" as="geometry"/>
                </mxCell>
                <mxCell id="5" value="" style="sketch=0;outlineConnect=0;fontColor=#232F3E;gradientColor=none;fillColor=#3F8624;strokeColor=none;dashed=0;verticalLabelPosition=bottom;verticalAlign=top;align=center;html=1;fontSize=12;fontStyle=0;aspect=fixed;pointerEvents=1;shape=mxgraph.aws4.iot_thing_plc;rounded=1;shadow=0;" vertex="1" parent="2">
                    <mxGeometry x="81.44999999999999" y="11.5" width="30" height="30" as="geometry"/>
                </mxCell>
            </root>
        </mxGraphModel>
    </diagram>
</mxfile>